<?xml version="1.0" encoding="UTF-8"?><svg id="_レイヤー_2" xmlns="http://www.w3.org/2000/svg" width="26.48" height="24.68" viewBox="0 0 26.48 24.68"><defs><style>.cls-1{fill:none;stroke:#000;stroke-linecap:round;stroke-linejoin:bevel;}</style></defs><g id="_レイヤー_1-2"><g><path class="cls-1" d="M.5,9.35l6.39-2.67"/><path class="cls-1" d="M4.53,3.42l-.39,9.84"/><path class="cls-1" d="M1,15.7l5.46-3.64"/><path class="cls-1" d="M9.82,5.93c-.11-1.43-.22-2.87,.26-3.72C14.32,.67,18.93,.16,23.4,.72c-.64,.92-1.27,1.85-1.91,2.77"/><path class="cls-1" d="M11.02,6.71c2.57-1.28,5.44-1.96,8.31-1.96"/><path class="cls-1" d="M16.02,5.96l-6.59,6.51"/><path class="cls-1" d="M12.59,9.58c2.79,.72,4.59,3.65,4.81,6.52s-.85,5.69-2.12,8.28c-.6-.79-1.2-1.58-1.79-2.37"/><path class="cls-1" d="M12.81,12.27l-5.08,5.57"/><path class="cls-1" d="M14.31,15.03c-1.64,3.26-4.34,5.98-7.6,7.63"/><path class="cls-1" d="M22.69,10.9c-1.73,1.43-3.46,2.87-5.07,4.28,2.98,.52,5.84,1.66,8.36,3.32"/></g></g></svg>